# xmcd
#
# Track frame offsets:
#	150
#	10621
#	19696
#	38453
#	48994
#	61460
#	74863
#	83917
#	95811
#	105630
#	125924
#	135210
#
# Disc length: 2013 seconds
#
# Revision: 1
# Processed by: cddbd v1.5.2PL0 Copyright (c) Steve Scherf et al.
# Submitted via: audiograbber 1.83.01
#
DISCID=9e07db0c
DTITLE=Spencer, Jeremy - Jeremy Spencer
DYEAR=1970
DGENRE=Blues
TTITLE0=Linda
TTITLE1=The Shape I'm In
TTITLE2=Mean Blues (sic)
TTITLE3=String-A-Long
TTITLE4=Here Comes Charlie (With His Dancing Shoes On)
TTITLE5=Teenage Love Affair
TTITLE6=Jenny Lee
TTITLE7=Don't Go, Please Stay
TTITLE8=You Made A Hit
TTITLE9=Take A Look Around Mrs. Brown (sic)
TTITLE10=Surfin' Girl
TTITLE11=If I Could Swim The Mountain
EXTD=
EXTT0=
EXTT1=
EXTT2=
EXTT3=
EXTT4=
EXTT5=
EXTT6=
EXTT7=
EXTT8=
EXTT9=
EXTT10=
EXTT11=
PLAYORDER=
